<?xml version="1.0" encoding="UTF-8" standalone="no"?>
<svg
   width="211.667mm"
   height="158.75mm"
   viewBox="0 0 2500 1875"
   version="1.1"
   id="svg5346"
   sodipodi:docname="Filled-Logo-Colors.svg"
   inkscape:version="1.2.2 (732a01da63, 2022-12-09)"
   xmlns:inkscape="http://www.inkscape.org/namespaces/inkscape"
   xmlns:sodipodi="http://sodipodi.sourceforge.net/DTD/sodipodi-0.dtd"
   xmlns:xlink="http://www.w3.org/1999/xlink"
   xmlns="http://www.w3.org/2000/svg"
   xmlns:svg="http://www.w3.org/2000/svg">
  <defs
     id="defs5350">
    <linearGradient
       inkscape:collect="always"
       id="linearGradient11345">
      <stop
         style="stop-color:#000000;stop-opacity:1;"
         offset="0.18327975"
         id="stop11341" />
      <stop
         style="stop-color:#d00101;stop-opacity:1;"
         offset="1"
         id="stop11343" />
    </linearGradient>
    <linearGradient
       id="linearGradient11321"
       inkscape:swatch="solid">
      <stop
         style="stop-color:#31bb1b;stop-opacity:1;"
         offset="0"
         id="stop11319" />
    </linearGradient>
    <radialGradient
       inkscape:collect="always"
       xlink:href="#linearGradient11345"
       id="radialGradient11347"
       cx="1250"
       cy="938.10814"
       fx="1250"
       fy="938.10814"
       r="954.81693"
       gradientTransform="matrix(1,0,0,0.98440344,0,14.631257)"
       gradientUnits="userSpaceOnUse" />
  </defs>
  <sodipodi:namedview
     id="namedview5348"
     pagecolor="#ffffff"
     bordercolor="#000000"
     borderopacity="0.25"
     inkscape:showpageshadow="2"
     inkscape:pageopacity="0.0"
     inkscape:pagecheckerboard="0"
     inkscape:deskcolor="#d1d1d1"
     inkscape:document-units="mm"
     showgrid="false"
     inkscape:zoom="0.98641396"
     inkscape:cx="173.8621"
     inkscape:cy="275.7463"
     inkscape:window-width="1920"
     inkscape:window-height="1017"
     inkscape:window-x="1272"
     inkscape:window-y="-8"
     inkscape:window-maximized="1"
     inkscape:current-layer="svg5346" />
  <path
     id="Selection"
     fill="none"
     stroke="black"
     stroke-width="1"
     d="M 1145.00,108.00            C 1118.22,110.17 1069.77,120.43 1043.00,127.13              944.45,151.76 854.19,192.93 770.00,249.67              736.87,272.00 705.63,297.41 676.00,324.17              676.00,324.17 654.00,345.00 654.00,345.00              651.73,347.23 648.59,351.07 645.00,349.83              642.21,348.87 631.77,337.77 629.00,335.00              629.00,335.00 593.00,299.00 593.00,299.00              589.82,295.82 578.73,286.58 579.74,282.04              580.32,279.46 587.76,273.23 590.00,271.00              590.00,271.00 619.00,243.92 619.00,243.92              658.92,207.19 705.15,174.57 751.00,145.68              844.69,86.65 955.50,44.31 1064.00,22.60              1092.63,16.87 1121.93,11.99 1151.00,9.17              1151.00,9.17 1169.00,7.83 1169.00,7.83              1169.00,7.83 1195.00,6.00 1195.00,6.00              1195.00,6.00 1208.00,5.00 1208.00,5.00              1208.00,5.00 1221.00,5.00 1221.00,5.00              1221.00,5.00 1237.00,4.00 1237.00,4.00              1237.00,4.00 1263.00,4.00 1263.00,4.00              1263.00,4.00 1279.00,5.00 1279.00,5.00              1279.00,5.00 1311.00,6.00 1311.00,6.00              1311.00,6.00 1343.00,8.83 1343.00,8.83              1374.94,11.92 1406.51,16.70 1438.00,23.00              1563.89,48.17 1691.48,101.89 1796.00,176.58              1826.86,198.63 1854.53,220.66 1883.00,245.72              1883.00,245.72 1909.00,270.00 1909.00,270.00              1911.16,272.14 1918.28,278.24 1919.38,280.04              1922.87,285.70 1913.62,292.38 1910.00,296.00              1910.00,296.00 1869.00,337.00 1869.00,337.00              1865.79,340.21 1856.64,351.44 1852.00,349.83              1849.33,348.91 1841.45,340.44 1839.00,338.00              1839.00,338.00 1813.00,314.28 1813.00,314.28              1782.67,287.69 1750.67,263.22 1717.00,241.00              1638.30,189.09 1548.44,149.99 1457.00,127.13              1429.73,120.31 1382.36,110.22 1355.00,108.00              1355.00,108.00 1346.28,179.00 1346.28,179.00              1346.28,179.00 1326.28,342.00 1326.28,342.00              1326.28,342.00 1298.28,570.00 1298.28,570.00              1298.28,570.00 1280.00,719.00 1280.00,719.00              1280.00,719.00 1260.00,718.00 1260.00,718.00              1260.00,718.00 1239.00,718.00 1239.00,718.00              1239.00,718.00 1220.00,719.00 1220.00,719.00              1220.00,719.00 1201.72,570.00 1201.72,570.00              1201.72,570.00 1173.72,342.00 1173.72,342.00              1173.72,342.00 1159.72,228.00 1159.72,228.00              1159.72,228.00 1152.84,172.00 1152.84,172.00              1152.84,172.00 1145.00,108.00 1145.00,108.00 Z            M 978.00,486.00            C 978.00,486.00 949.42,436.00 949.42,436.00              949.42,436.00 898.72,348.00 898.72,348.00              898.72,348.00 877.85,312.00 877.85,312.00              876.26,309.23 870.40,299.87 870.56,297.21              870.71,294.80 873.20,293.75 875.02,292.70              875.02,292.70 890.00,284.31 890.00,284.31              908.97,274.05 934.06,261.86 954.00,253.80              954.00,253.80 972.00,246.40 972.00,246.40              975.11,245.23 977.57,244.05 979.93,247.19              981.24,248.94 983.52,255.60 984.42,258.00              984.42,258.00 993.60,282.00 993.60,282.00              993.60,282.00 1025.42,365.00 1025.42,365.00              1025.42,365.00 1121.81,616.00 1121.81,616.00              1121.81,616.00 1155.20,703.00 1155.20,703.00              1155.20,703.00 1163.32,724.00 1163.32,724.00              1164.15,726.26 1166.09,730.32 1164.88,732.59              1163.81,734.57 1159.10,736.25 1157.00,737.15              1157.00,737.15 1138.00,746.29 1138.00,746.29              1135.39,747.62 1132.49,749.66 1129.79,747.41              1127.92,745.86 1119.99,731.20 1118.15,728.00              1118.15,728.00 1092.72,684.00 1092.72,684.00              1092.72,684.00 1039.58,592.00 1039.58,592.00              1039.58,592.00 1013.00,545.00 1013.00,545.00              991.84,555.32 952.79,585.10 935.00,601.17              935.00,601.17 926.00,609.91 926.00,609.91              832.33,697.18 777.00,823.93 777.00,952.00              777.00,952.00 878.00,952.00 878.00,952.00              878.00,952.00 1005.00,952.00 1005.00,952.00              1006.99,952.00 1010.81,951.77 1012.40,953.02              1014.41,954.61 1013.95,958.67 1014.01,961.00              1014.01,961.00 1015.42,978.00 1015.42,978.00              1015.88,981.43 1018.02,989.47 1014.68,991.57              1013.00,992.63 1007.22,993.38 1005.00,993.75              1005.00,993.75 983.00,997.25 983.00,997.25              983.00,997.25 906.00,1009.41 906.00,1009.41              906.00,1009.41 624.00,1054.08 624.00,1054.08              624.00,1054.08 535.00,1068.25 535.00,1068.25              535.00,1068.25 511.00,1072.20 511.00,1072.20              508.55,1072.34 503.49,1073.43 501.31,1072.20              499.15,1071.37 499.08,1069.07 498.73,1067.00              498.73,1067.00 496.58,1052.00 496.58,1052.00              496.58,1052.00 492.00,1010.00 492.00,1010.00              492.00,1010.00 492.00,1001.00 492.00,1001.00              492.00,1001.00 490.96,989.00 490.96,989.00              490.96,989.00 490.96,976.00 490.96,976.00              490.96,976.00 490.00,964.00 490.00,964.00              490.00,961.31 489.34,954.93 491.57,953.17              493.38,951.75 497.74,952.00 500.00,952.00              500.00,952.00 541.00,952.00 541.00,952.00              541.00,952.00 708.00,952.00 708.00,952.00              708.00,952.00 708.96,940.00 708.96,940.00              708.96,940.00 708.96,925.00 708.96,925.00              708.96,925.00 709.91,915.00 709.91,915.00              712.21,881.41 717.55,848.60 726.12,816.00              751.65,718.86 806.26,624.33 881.00,556.83              904.02,536.04 917.82,525.07 943.00,507.14              950.43,501.85 970.06,488.51 978.00,486.00 Z            M 1487.00,545.00            C 1487.00,545.00 1460.42,592.00 1460.42,592.00              1460.42,592.00 1407.28,684.00 1407.28,684.00              1407.28,684.00 1381.85,728.00 1381.85,728.00              1380.01,731.20 1372.08,745.86 1370.21,747.41              1367.51,749.66 1364.61,747.62 1362.00,746.29              1362.00,746.29 1343.00,737.15 1343.00,737.15              1340.90,736.25 1336.19,734.57 1335.12,732.59              1333.91,730.32 1335.85,726.26 1336.68,724.00              1336.68,724.00 1344.80,703.00 1344.80,703.00              1344.80,703.00 1378.19,616.00 1378.19,616.00              1378.19,616.00 1474.58,365.00 1474.58,365.00              1474.58,365.00 1506.40,282.00 1506.40,282.00              1506.40,282.00 1515.60,258.00 1515.60,258.00              1515.60,258.00 1520.08,247.19 1520.08,247.19              1522.40,244.04 1524.93,245.25 1528.00,246.40              1528.00,246.40 1546.00,253.72 1546.00,253.72              1567.70,263.08 1589.20,273.06 1610.00,284.31              1610.00,284.31 1624.98,292.70 1624.98,292.70              1626.80,293.75 1629.29,294.80 1629.44,297.21              1629.60,299.87 1623.74,309.23 1622.15,312.00              1622.15,312.00 1601.28,348.00 1601.28,348.00              1601.28,348.00 1550.58,436.00 1550.58,436.00              1550.58,436.00 1522.00,486.00 1522.00,486.00              1529.57,488.39 1545.80,499.52 1553.00,504.33              1576.51,520.03 1598.06,537.92 1619.00,556.83              1693.74,624.33 1748.35,718.86 1773.88,816.00              1782.45,848.58 1787.79,881.42 1790.09,915.00              1790.09,915.00 1791.04,925.00 1791.04,925.00              1791.04,925.00 1791.04,940.00 1791.04,940.00              1791.04,940.00 1792.00,952.00 1792.00,952.00              1792.00,952.00 1959.00,952.00 1959.00,952.00              1959.00,952.00 1995.00,952.00 1995.00,952.00              1997.95,952.00 2006.30,951.50 2008.43,953.17              2010.66,954.93 2010.00,961.31 2010.00,964.00              2010.00,964.00 2009.04,976.00 2009.04,976.00              2009.04,976.00 2009.04,989.00 2009.04,989.00              2009.04,989.00 2008.00,1001.00 2008.00,1001.00              2008.00,1001.00 2008.00,1010.00 2008.00,1010.00              2008.00,1010.00 2003.42,1052.00 2003.42,1052.00              2003.42,1052.00 2001.27,1067.00 2001.27,1067.00              2000.92,1069.07 2000.85,1071.37 1998.69,1072.20              1996.51,1073.43 1991.45,1072.34 1989.00,1072.20              1989.00,1072.20 1966.00,1068.27 1966.00,1068.27              1966.00,1068.27 1876.00,1054.08 1876.00,1054.08              1876.00,1054.08 1594.00,1009.41 1594.00,1009.41              1594.00,1009.41 1517.00,997.25 1517.00,997.25              1517.00,997.25 1495.00,993.75 1495.00,993.75              1492.78,993.38 1487.00,992.63 1485.32,991.57              1481.98,989.47 1484.12,981.43 1484.58,978.00              1484.58,978.00 1485.99,961.00 1485.99,961.00              1486.05,958.67 1485.59,954.61 1487.60,953.02              1489.19,951.77 1493.01,952.00 1495.00,952.00              1495.00,952.00 1622.00,952.00 1622.00,952.00              1622.00,952.00 1723.00,952.00 1723.00,952.00              1723.00,952.00 1723.00,943.00 1723.00,943.00              1723.00,943.00 1722.04,930.00 1722.04,930.00              1721.15,909.57 1719.06,891.15 1715.42,871.00              1697.30,770.50 1647.81,678.60 1573.00,608.91              1551.38,588.77 1513.31,557.83 1487.00,545.00 Z            M 1005.00,1871.00            C 984.12,1866.28 944.59,1853.13 924.00,1845.42              881.15,1829.39 841.30,1812.11 801.00,1790.31              724.61,1748.99 653.80,1698.03 591.00,1637.96              591.00,1637.96 560.91,1607.00 560.91,1607.00              560.91,1607.00 526.43,1569.00 526.43,1569.00              428.05,1453.50 357.84,1312.93 324.35,1165.00              314.45,1121.27 306.99,1076.73 303.91,1032.00              303.91,1032.00 302.00,1003.00 302.00,1003.00              302.00,1003.00 301.00,987.00 301.00,987.00              301.00,987.00 301.00,918.00 301.00,918.00              301.00,918.00 302.91,890.00 302.91,890.00              305.57,851.13 309.94,812.30 317.60,774.00              317.60,774.00 328.37,725.00 328.37,725.00              329.26,721.45 331.22,709.76 334.30,708.19              336.82,706.92 350.55,711.22 354.00,712.15              354.00,712.15 406.00,726.13 406.00,726.13              406.00,726.13 420.98,730.13 420.98,730.13              422.94,730.66 425.29,731.06 425.96,733.28              426.70,735.67 423.16,747.84 422.37,751.00              422.37,751.00 413.00,793.00 413.00,793.00              407.71,819.00 404.47,845.64 401.83,872.00              401.83,872.00 399.91,897.00 399.91,897.00              399.91,897.00 399.00,908.00 399.00,908.00              399.00,908.00 398.00,926.00 398.00,926.00              398.00,926.00 398.00,980.00 398.00,980.00              398.00,980.00 399.00,995.00 399.00,995.00              399.42,1031.49 407.36,1085.79 414.60,1122.00              423.00,1164.01 435.20,1204.61 449.34,1245.00              449.34,1245.00 460.60,1274.00 460.60,1274.00              461.64,1276.60 463.46,1282.64 466.22,1283.59              468.42,1284.35 472.88,1282.06 475.00,1281.15              475.00,1281.15 495.00,1272.72 495.00,1272.72              495.00,1272.72 576.00,1238.28 576.00,1238.28              576.00,1238.28 893.00,1103.72 893.00,1103.72              893.00,1103.72 996.00,1060.00 996.00,1060.00              996.00,1060.00 1022.00,1049.00 1022.00,1049.00              1024.44,1047.96 1029.24,1045.36 1031.78,1046.35              1034.16,1047.28 1035.30,1050.85 1036.31,1053.00              1036.31,1053.00 1045.20,1070.00 1045.20,1070.00              1045.20,1070.00 1056.58,1088.00 1056.58,1088.00              1058.14,1090.24 1061.05,1093.94 1060.27,1096.83              1059.59,1099.38 1055.09,1102.30 1053.00,1103.87              1053.00,1103.87 1036.00,1116.87 1036.00,1116.87              1036.00,1116.87 968.00,1168.12 968.00,1168.12              968.00,1168.12 907.00,1213.88 907.00,1213.88              907.00,1213.88 700.00,1369.87 700.00,1369.87              700.00,1369.87 621.00,1429.42 621.00,1429.42              621.00,1429.42 590.00,1452.87 590.00,1452.87              584.16,1457.25 576.23,1463.79 570.00,1467.00              570.00,1467.00 587.26,1489.00 587.26,1489.00              606.69,1512.88 627.24,1535.24 649.00,1557.00              649.00,1557.00 669.00,1576.91 669.00,1576.91              725.28,1629.35 785.46,1671.17 853.00,1707.69              876.87,1720.60 901.93,1731.67 927.00,1742.01              927.00,1742.01 974.00,1759.86 974.00,1759.86              974.00,1759.86 1014.00,1772.42 1014.00,1772.42              1016.87,1773.24 1027.52,1775.68 1028.92,1777.72              1030.15,1779.40 1029.30,1782.18 1028.92,1784.00              1028.92,1784.00 1024.29,1801.00 1024.29,1801.00              1024.29,1801.00 1011.42,1849.00 1011.42,1849.00              1009.41,1856.23 1007.93,1864.11 1005.00,1871.00 Z            M 1930.00,1467.00            C 1930.00,1467.00 1884.00,1433.13 1884.00,1433.13              1884.00,1433.13 1796.00,1366.87 1796.00,1366.87              1796.00,1366.87 1601.00,1219.88 1601.00,1219.88              1601.00,1219.88 1532.00,1168.00 1532.00,1168.00              1532.00,1168.00 1463.00,1116.00 1463.00,1116.00              1463.00,1116.00 1446.00,1103.13 1446.00,1103.13              1444.07,1101.67 1440.37,1099.23 1439.73,1096.83              1439.02,1094.17 1441.31,1091.07 1442.72,1089.00              1442.72,1089.00 1452.55,1074.00 1452.55,1074.00              1452.55,1074.00 1463.69,1053.00 1463.69,1053.00              1464.86,1050.50 1465.97,1046.62 1469.11,1046.12              1471.36,1045.77 1476.78,1048.32 1479.00,1049.28              1479.00,1049.28 1502.00,1059.15 1502.00,1059.15              1502.00,1059.15 1586.00,1094.72 1586.00,1094.72              1586.00,1094.72 1898.00,1227.28 1898.00,1227.28              1898.00,1227.28 2001.00,1270.99 2001.00,1270.99              2001.00,1270.99 2025.00,1281.15 2025.00,1281.15              2027.49,1282.22 2032.06,1284.80 2034.59,1283.19              2036.64,1281.88 2038.44,1276.35 2039.42,1274.00              2039.42,1274.00 2048.19,1252.00 2048.19,1252.00              2057.46,1227.57 2071.77,1183.17 2077.21,1158.00              2077.21,1158.00 2085.00,1124.00 2085.00,1124.00              2090.64,1096.75 2095.15,1068.70 2097.83,1041.00              2097.83,1041.00 2100.09,1011.00 2100.09,1011.00              2100.09,1011.00 2101.00,999.00 2101.00,999.00              2101.00,999.00 2102.00,980.00 2102.00,980.00              2102.00,980.00 2102.00,926.00 2102.00,926.00              2102.00,926.00 2101.00,910.00 2101.00,910.00              2101.00,910.00 2100.09,897.00 2100.09,897.00              2097.73,862.51 2093.87,828.01 2087.20,794.00              2087.20,794.00 2078.13,753.00 2078.13,753.00              2077.32,749.79 2073.55,736.45 2074.06,734.13              2075.01,729.82 2087.03,728.13 2091.00,727.00              2091.00,727.00 2147.00,712.00 2147.00,712.00              2150.04,711.13 2162.58,707.30 2164.86,707.90              2166.64,708.36 2167.30,709.48 2167.98,711.06              2167.98,711.06 2173.87,734.00 2173.87,734.00              2173.87,734.00 2185.41,791.00 2185.41,791.00              2190.46,821.10 2194.83,851.56 2197.00,882.00              2197.00,882.00 2197.00,890.00 2197.00,890.00              2197.00,890.00 2199.00,918.00 2199.00,918.00              2199.00,918.00 2199.00,987.00 2199.00,987.00              2199.00,987.00 2198.00,1009.00 2198.00,1009.00              2198.00,1009.00 2197.09,1019.00 2197.09,1019.00              2197.09,1019.00 2189.27,1092.00 2189.27,1092.00              2181.15,1147.10 2168.43,1201.21 2150.67,1254.00              2137.09,1294.35 2121.30,1333.67 2102.74,1372.00              2102.74,1372.00 2094.26,1388.00 2094.26,1388.00              2001.40,1567.95 1857.28,1711.61 1676.00,1802.25              1630.83,1824.83 1584.25,1844.03 1536.00,1859.02              1536.00,1859.02 1495.00,1871.00 1495.00,1871.00              1492.07,1864.11 1490.59,1856.23 1488.58,1849.00              1488.58,1849.00 1475.71,1801.00 1475.71,1801.00              1475.71,1801.00 1471.08,1784.00 1471.08,1784.00              1470.70,1782.18 1469.85,1779.40 1471.08,1777.72              1472.48,1775.68 1483.13,1773.24 1486.00,1772.42              1486.00,1772.42 1526.00,1759.86 1526.00,1759.86              1526.00,1759.86 1577.00,1740.42 1577.00,1740.42              1600.71,1730.48 1624.36,1719.94 1647.00,1707.69              1713.00,1672.00 1775.03,1629.13 1830.00,1577.91              1858.31,1551.54 1884.83,1522.73 1909.57,1493.00              1909.57,1493.00 1930.00,1467.00 1930.00,1467.00 Z            M 1104.00,1005.00            C 1104.00,1005.00 1063.15,934.00 1063.15,934.00              1063.15,934.00 1051.58,914.00 1051.58,914.00              1050.09,911.41 1047.16,906.86 1046.79,904.00              1046.38,900.76 1050.13,889.60 1051.33,886.00              1056.60,870.21 1064.04,855.11 1072.81,841.00              1078.47,831.88 1087.65,819.72 1095.04,812.00              1101.91,804.81 1103.01,802.02 1113.00,802.00              1113.00,802.00 1197.00,802.00 1197.00,802.00              1197.00,802.00 1216.00,802.00 1216.00,802.00              1217.95,802.04 1220.63,801.90 1221.98,803.60              1223.23,805.19 1223.00,809.01 1223.00,811.00              1223.00,811.00 1223.00,929.00 1223.00,929.00              1223.00,931.59 1223.24,935.38 1221.83,937.61              1220.49,939.71 1216.21,941.88 1214.00,943.20              1214.00,943.20 1197.00,953.01 1197.00,953.01              1197.00,953.01 1135.00,988.85 1135.00,988.85              1127.18,993.32 1112.05,1003.49 1104.00,1005.00 Z            M 1396.00,1005.00            C 1388.44,1003.58 1372.53,993.15 1365.00,988.85              1365.00,988.85 1303.00,953.00 1303.00,953.00              1303.00,953.00 1286.00,943.20 1286.00,943.20              1283.79,941.88 1279.51,939.71 1278.17,937.61              1276.76,935.38 1277.00,931.59 1277.00,929.00              1277.00,929.00 1277.00,832.00 1277.00,832.00              1277.00,832.00 1277.00,810.00 1277.00,810.00              1277.01,808.18 1276.85,805.08 1278.02,803.60              1279.59,801.62 1283.70,802.00 1286.00,802.00              1286.00,802.00 1387.00,802.00 1387.00,802.00              1389.09,802.00 1392.06,801.88 1394.00,802.60              1397.96,804.06 1405.62,812.58 1408.58,816.00              1421.39,830.84 1429.53,843.53 1438.25,861.00              1443.16,870.85 1447.49,881.43 1450.58,892.00              1451.42,894.89 1453.55,901.28 1453.21,904.00              1452.84,906.86 1449.91,911.41 1448.42,914.00              1448.42,914.00 1436.85,934.00 1436.85,934.00              1436.85,934.00 1396.00,1005.00 1396.00,1005.00 Z            M 1133.00,1052.00            C 1133.00,1052.00 1160.00,1036.85 1160.00,1036.85              1160.00,1036.85 1217.00,1003.85 1217.00,1003.85              1217.00,1003.85 1238.00,991.80 1238.00,991.80              1238.00,991.80 1250.00,986.42 1250.00,986.42              1250.00,986.42 1262.00,991.80 1262.00,991.80              1262.00,991.80 1283.00,1003.85 1283.00,1003.85              1283.00,1003.85 1340.00,1036.85 1340.00,1036.85              1340.00,1036.85 1367.00,1052.00 1367.00,1052.00              1365.53,1059.80 1358.35,1069.86 1354.28,1077.00              1354.28,1077.00 1325.42,1127.00 1325.42,1127.00              1325.42,1127.00 1315.01,1145.00 1315.01,1145.00              1313.35,1147.82 1311.19,1152.31 1308.67,1154.28              1304.85,1157.26 1287.52,1160.01 1282.00,1160.92              1261.35,1164.33 1235.63,1163.88 1215.00,1160.41              1210.37,1159.64 1195.60,1156.99 1192.18,1154.86              1189.13,1152.96 1187.33,1149.06 1185.58,1146.00              1185.58,1146.00 1175.72,1129.00 1175.72,1129.00              1175.72,1129.00 1145.72,1077.00 1145.72,1077.00              1141.81,1070.12 1134.37,1059.30 1133.00,1052.00 Z            M 979.00,1424.00            C 977.28,1429.90 972.83,1436.54 969.72,1442.00              969.72,1442.00 951.20,1474.00 951.20,1474.00              951.20,1474.00 900.42,1562.00 900.42,1562.00              900.42,1562.00 880.20,1597.00 880.20,1597.00              878.60,1599.69 873.78,1608.91 871.62,1610.19              869.32,1611.56 867.05,1610.12 865.00,1608.98              865.00,1608.98 851.00,1600.40 851.00,1600.40              832.42,1589.25 809.07,1573.47 792.00,1560.21              792.00,1560.21 777.02,1548.58 777.02,1548.58              775.00,1546.93 772.06,1544.90 772.73,1541.91              773.23,1539.68 777.42,1534.97 779.00,1533.00              779.00,1533.00 793.58,1515.00 793.58,1515.00              793.58,1515.00 846.20,1450.00 846.20,1450.00              846.20,1450.00 1035.61,1216.00 1035.61,1216.00              1035.61,1216.00 1079.40,1162.00 1079.40,1162.00              1079.40,1162.00 1092.39,1146.00 1092.39,1146.00              1093.92,1144.12 1097.11,1139.80 1099.09,1138.73              1102.15,1137.08 1104.56,1139.16 1107.00,1140.89              1107.00,1140.89 1123.00,1152.14 1123.00,1152.14              1125.20,1153.56 1129.79,1155.89 1130.87,1158.21              1132.51,1161.70 1127.39,1168.85 1125.58,1172.00              1125.58,1172.00 1103.60,1210.00 1103.60,1210.00              1103.60,1210.00 1050.58,1302.00 1050.58,1302.00              1050.58,1302.00 1015.00,1364.00 1015.00,1364.00              1015.00,1364.00 1041.00,1377.74 1041.00,1377.74              1066.72,1390.19 1093.50,1400.73 1121.00,1408.57              1151.62,1417.31 1183.27,1422.87 1215.00,1425.09              1215.00,1425.09 1225.00,1426.00 1225.00,1426.00              1225.00,1426.00 1246.00,1427.00 1246.00,1427.00              1246.00,1427.00 1255.00,1427.00 1255.00,1427.00              1255.00,1427.00 1265.00,1426.04 1265.00,1426.04              1265.00,1426.04 1275.00,1426.04 1275.00,1426.04              1275.00,1426.04 1285.00,1425.09 1285.00,1425.09              1320.94,1422.58 1356.58,1415.67 1391.00,1404.98              1413.51,1397.98 1435.79,1389.01 1457.00,1378.74              1457.00,1378.74 1485.00,1364.00 1485.00,1364.00              1485.00,1364.00 1449.42,1302.00 1449.42,1302.00              1449.42,1302.00 1396.40,1210.00 1396.40,1210.00              1396.40,1210.00 1374.42,1172.00 1374.42,1172.00              1372.61,1168.85 1367.49,1161.70 1369.13,1158.21              1370.21,1155.89 1374.80,1153.56 1377.00,1152.14              1377.00,1152.14 1393.00,1140.89 1393.00,1140.89              1395.44,1139.16 1397.85,1137.08 1400.91,1138.73              1402.76,1139.72 1406.28,1144.22 1407.75,1146.00              1407.75,1146.00 1420.61,1162.00 1420.61,1162.00              1420.61,1162.00 1463.60,1215.00 1463.60,1215.00              1463.60,1215.00 1575.39,1353.00 1575.39,1353.00              1575.39,1353.00 1652.25,1448.00 1652.25,1448.00              1652.25,1448.00 1705.75,1514.00 1705.75,1514.00              1705.75,1514.00 1720.25,1532.00 1720.25,1532.00              1722.05,1534.18 1726.75,1539.35 1727.28,1541.91              1727.85,1544.60 1725.77,1546.22 1723.95,1547.79              1723.95,1547.79 1709.00,1559.58 1709.00,1559.58              1689.96,1574.35 1669.48,1587.74 1649.00,1600.42              1649.00,1600.42 1635.00,1608.98 1635.00,1608.98              1632.95,1610.11 1630.68,1611.56 1628.38,1610.19              1626.18,1608.88 1620.86,1598.78 1619.28,1596.00              1619.28,1596.00 1599.58,1562.00 1599.58,1562.00              1599.58,1562.00 1548.80,1474.00 1548.80,1474.00              1548.80,1474.00 1530.28,1442.00 1530.28,1442.00              1527.17,1436.54 1522.72,1429.90 1521.00,1424.00              1514.72,1425.79 1505.16,1431.65 1499.00,1434.97              1499.00,1434.97 1477.00,1445.74 1477.00,1445.74              1455.26,1456.26 1431.98,1464.31 1409.00,1471.66              1327.13,1497.82 1228.09,1502.13 1144.00,1485.00              1102.27,1476.49 1066.07,1464.29 1027.00,1447.57              1027.00,1447.57 995.00,1431.74 995.00,1431.74              989.26,1428.78 985.37,1425.82 979.00,1424.00 Z"
     style="fill:url(#radialGradient11347);fill-opacity:1;stroke:#000000;stroke-opacity:1;stroke-width:11.63385753;stroke-dasharray:none" />
</svg>
